<?xml version="1.0" standalone="no"?>
<!DOCTYPE svg PUBLIC "-//W3C//DTD SVG 1.1//EN" "http://www.w3.org/Graphics/SVG/1.1/DTD/svg11.dtd" >
<svg xmlns="http://www.w3.org/2000/svg">
<defs>
  <font id="publication-font" horiz-adv-x="2700">
    <font-face font-family="publication-font"
      units-per-em="2700" ascent="2700"
      descent="0" />
    <missing-glyph horiz-adv-x="0" />
    <glyph glyph-name="accessibility"
      unicode="&#xE001;"
      horiz-adv-x="1375" d="M784.87 284.1099999999999C793.56375 264.9837500000001 810.95125 254.55125 830.0775 254.55125C837.0325 254.55125 843.9875 256.29 850.9425 259.7675C877.02375 271.9387500000001 887.45625 301.4975 875.285 327.5787499999999C875.285 327.5787499999999 779.65375 546.66125 762.26625 626.64375C755.31125 654.46375 751.83375 729.23 750.095 764.005C750.095 776.17625 757.05 786.60875 767.4825 790.08625L981.34875 854.42C1007.43 861.375 1023.07875 890.9337499999999 1016.12375 917.015C1009.16875 943.09625 979.61 958.745 953.52875 951.79C953.52875 951.79 755.31125 887.45625 684.0225 887.45625C614.4725 887.45625 417.99375 950.05125 417.99375 950.05125C391.9125 957.00625 362.35375 944.835 353.6600000000001 918.75375C344.96625 890.9337499999999 360.615 861.375 388.435 854.42L602.30125 790.08625C612.73375 786.60875 621.4275 776.17625 619.68875 764.005C617.95 729.23 614.4725 654.46375 607.5175 626.64375C590.13 546.66125 494.49875 327.5787499999999 494.49875 327.5787499999999C482.3275 301.4975 494.49875 271.9387500000001 518.84125 259.7675C525.79625 256.29 532.75125 254.55125 539.70625 254.55125C558.8325 254.55125 577.95875 264.9837500000001 584.91375 284.1099999999999L687.5 492.76L784.87 284.1099999999999zM590.13 1035.25A97.36999999999999 97.36999999999999 0 0 1 784.87 1035.25A97.36999999999999 97.36999999999999 0 0 1 590.13 1035.25M1374.30625 687.5C1374.30625 1066.5475000000001 1066.5475 1374.30625 687.5 1374.30625C308.4525 1374.30625 0.69375 1066.5475000000001 0.69375 687.5C0.69375 308.4525000000001 308.4525 0.6937499999999 687.5 0.6937499999999C1066.5475 0.6937499999999 1374.30625 308.4525000000001 1374.30625 687.5zM115.45125 687.5C115.45125 1003.9525 372.78625 1259.54875 687.5 1259.54875C1002.21375 1259.54875 1259.54875 1003.9525 1259.54875 687.5C1259.54875 371.0475 1003.9525 115.4512500000001 687.5 115.4512500000001C371.0475 115.4512500000001 115.45125 371.0475 115.45125 687.5z" />
    <glyph glyph-name="arrow-down"
      unicode="&#xE002;"
      horiz-adv-x="2700" d="M1351.426 908.775C1379.8319999999999 908.775 1408.2379999999998 920.1374 1428.1222 940.0216L2124.0692 1593.3596C2169.5188 1635.9686 2172.3594 1706.9836 2129.7504 1755.2738C2087.1414 1800.7233999999999 2016.1264 1803.564 1967.8362 1760.955L1351.426 1178.632L732.1751999999999 1758.1144C686.7255999999999 1800.7234 615.7105999999999 1797.8828 570.261 1752.4332C527.6519999999999 1706.9836 530.4925999999999 1635.9686000000002 575.9422 1590.519L1271.8892 937.181C1294.614 920.1374 1323.02 908.775 1351.4260000000002 908.775z" />
    <glyph glyph-name="book-first"
      unicode="&#xE003;"
      horiz-adv-x="1700" d="M656.297 995.037C573.398 912.342 573.398 777.6270000000001 656.297 694.932L1317.905 33.1750000000002C1338.52 12.4490000000001 1365.778 2.0850000000003 1392.931 2.0850000000003C1420.079 2.0850000000003 1447.329 12.4490000000003 1467.952 33.1750000000002C1509.503 74.6250000000002 1509.503 141.7770000000003 1467.952 183.2270000000001L806.247 844.983L1473.859 1512.754C1515.312 1554.204 1515.312 1621.355 1473.859 1662.8049999999998C1432.405 1704.254 1365.466 1704.254 1323.806 1662.8049999999998L656.297 995.037zM184.276 1484.568V211.4110000000001C184.276 152.656 231.745 105.298 290.39 105.298C349.098 105.298 396.504 152.656 396.504 211.4110000000001V1484.568C396.504 1543.219 349.0990000000001 1590.681 290.39 1590.681C231.745 1590.681 184.276 1543.219 184.276 1484.568z" />
    <glyph glyph-name="book-last"
      unicode="&#xE004;"
      horiz-adv-x="1700" d="M365.061 1674.544C323.061 1716.544 255.207 1716.544 213.207 1674.544C171.257 1632.593 171.257 1564.69 213.207 1522.69L888.879 847.02L219.241 177.271C177.241 135.3240000000001 177.241 67.367 219.241 25.4210000000001C240.159 4.444 267.686 -6.0429999999999 295.164 -6.0429999999999S350.169 4.4440000000002 371.087 25.4210000000001L1040.6770000000001 695.1160000000001C1124.5770000000002 778.8000000000001 1124.5770000000002 915.132 1040.6770000000001 998.8690000000003L365.061 1674.544zM1410.87 1601.659C1351.512 1601.659 1303.484 1553.521 1303.484 1494.2730000000001V205.7939999999999C1303.484 146.4389999999999 1351.511 98.4069999999999 1410.87 98.4069999999999C1470.222 98.4069999999999 1518.2569999999998 146.4379999999999 1518.2569999999998 205.7939999999999V1494.273C1518.257 1553.521 1470.222 1601.659 1410.87 1601.659z" />
    <glyph glyph-name="book-next"
      unicode="&#xE005;"
      horiz-adv-x="1700" d="M514.318 2.6949999999999C478.839 2.6949999999999 443.392 16.1669999999999 416.278 43.317C362.142 97.4169999999999 362.142 185.233 416.278 239.4010000000001L1024.026 847.2230000000001L410.693 1460.626C356.525 1514.789 356.525 1602.542 410.693 1656.7060000000001C464.824 1710.8410000000001 552.673 1710.8410000000001 606.74 1656.7060000000001L1269.1309999999999 994.214C1308.3349999999998 955.047 1329.935 902.773 1329.935 847.154C1329.935 791.562 1308.335 739.293 1269.1309999999999 700.158L612.3579999999998 43.2530000000002C585.309 16.1659999999999 549.829 2.6949999999999 514.318 2.6949999999999z" />
    <glyph glyph-name="book-prev"
      unicode="&#xE006;"
      horiz-adv-x="1700" d="M1095.104 40.6179999999999L437.2570000000001 698.5329999999999C397.9910000000001 737.7299999999999 376.3610000000001 790.079 376.3610000000001 845.7549999999999C376.3610000000001 901.4289999999997 397.9920000000001 953.778 437.2570000000001 993.0449999999998L1100.662 1656.5879999999997C1154.914 1710.7699999999998 1242.798 1710.7699999999998 1297.048 1656.5879999999997C1351.23 1602.3379999999997 1351.23 1514.4519999999998 1297.048 1460.2019999999998L682.735 845.8219999999999L1291.4859999999999 237.0679999999998C1345.6689999999999 182.8199999999997 1345.6689999999999 94.8659999999998 1291.4859999999999 40.6839999999997C1264.2959999999998 13.4929999999997 1228.83 -0.0030000000002 1193.2959999999998 -0.0030000000002C1157.761 -0.002 1122.228 13.4929999999999 1095.104 40.6179999999999z" />
    <glyph glyph-name="bookmark"
      unicode="&#xE007;"
      horiz-adv-x="2267.7" d="M1423.9 1982.7H843.9000000000001C756.6000000000001 1983.7999999999995 685.0000000000001 1913.9999999999995 683.9000000000001 1826.7C683.9000000000001 1825.4 683.9000000000001 1823.9999999999995 683.9000000000001 1822.7V322.6999999999998C713.9000000000001 262.6999999999998 753.9000000000001 282.6999999999998 773.9000000000001 322.6999999999998L1113.9 602.6999999999998H1153.9L1493.9 322.6999999999998C1513.9 282.6999999999998 1553.9 272.6999999999998 1583.9 322.6999999999998V1822.7C1585 1909.9999999999995 1515.2 1981.6 1427.9 1982.7C1426.6 1982.7 1425.2 1982.7 1423.9 1982.7z" />
    <glyph glyph-name="cancel"
      unicode="&#xE008;"
      horiz-adv-x="100" d="M20 75.286L45.286 50L20 24.714L24.714 20L50 45.286L75.286 20L80 24.714L54.714 50L80 75.286L75.286 80L50 54.713L24.714 80z" />
    <glyph glyph-name="close"
      unicode="&#xE009;"
      horiz-adv-x="2267.7" d="M1343.8 1133.8999999999999L1693.8 1483.8999999999999L1483.8 1693.8999999999999L1133.8 1343.8999999999999L783.8 1693.8999999999999L573.8 1483.8999999999999L923.8 1133.8999999999999L573.8 783.8999999999999L783.8 573.8999999999999L1133.8 923.8999999999997L1483.8 573.8999999999999L1693.8 783.8999999999999z" />
    <glyph glyph-name="down-arrow"
      unicode="&#xE00A;"
      horiz-adv-x="2267.7" d="M1717.8 1426.3999999999999H549.9L1132.6999999999998 841.3999999999999L1717.8 1426.3999999999999" />
    <glyph glyph-name="download-attach"
      unicode="&#xE00B;"
      horiz-adv-x="16" d="M14.1143 5L16.0003 5L16.0003 1C16.0003 0.448 15.5523 0 15.0003 0L1.0003 0C0.4473 0 0.0003 0.448 0.0003 1L0.0003 5L1.8853 5L1.8853 1.886L14.1143 1.886L14.1143 5zM7.0002 16.0002L9.0002 16.0002L9.0002 6.9212L11.2932 9.2142L12.7072 7.8002L8.0002 3.0932L3.2932 7.8002L4.7072 9.2142L7.0002 6.9212L7.0002 16.0002z" />
    <glyph glyph-name="download-full"
      unicode="&#xE00C;"
      horiz-adv-x="15" d="M12 2L3 2C2.449 2 2 2.449 2 3C2 3.551 2.449 4 3 4L12 4L12 2zM11 18L11 11L9 13L7 11L7 18L3 18C1.343 18 0 16.657 0 15L0 3C0 1.343 1.343 0 3 0L15 0L15 2L14 2L14 4L15 4L15 6L15 18L11 18z" />
    <glyph glyph-name="download-left"
      unicode="&#xE00D;"
      horiz-adv-x="14" d="M5 16L12 16C13.1 16 14 15.1 14 14L14 2C14 0.9 13.1 0 12 0L2 0C0.9 0 0 0.9 0 2L0 11.1L5 16zM12 2L12 14L7 14L7 9L2 9L2 2L12 2z" />
    <glyph glyph-name="download-right"
      unicode="&#xE00E;"
      horiz-adv-x="14" d="M9 16L2 16C0.9 16 0 15.1 0 14L0 2C0 0.9 0.9 0 2 0L12 0C13.1 0 14 0.9 14 2L14 11.1L9 16zM2 2L2 14L7 14L7 9L12 9L12 2L2 2z" />
    <glyph glyph-name="download"
      unicode="&#xE00F;"
      horiz-adv-x="2267.7" d="M1593.9 1278.8999999999999H1383.9V1788.8999999999999C1391.2 1827.2 1375.6000000000001 1866.2 1343.9 1888.9H923.9C892.2 1866.2 876.6000000000001 1827.2 883.9000000000001 1788.8999999999999V1278.8999999999999H653.9000000000001L1133.9 768.8999999999999L1593.9 1278.8999999999999zM1683.9 778.7999999999997V578.7999999999997H583.9000000000001V778.7999999999997H383.9000000000001V498.7999999999997C379.8000000000001 438.4999999999998 423.8000000000001 385.5999999999997 483.9000000000001 378.7999999999998H1783.9C1844.2 385.0999999999997 1888.6 438.2999999999998 1883.9 498.7999999999997V778.7999999999997H1683.9L1683.9 778.7999999999997z" />
    <glyph glyph-name="first"
      unicode="&#xE010;"
      horiz-adv-x="2267.7" d="M1589.2 1663.7999999999997L829.2 1203.7999999999997C816 1193.1999999999998 805.7 1179.4999999999998 799.2 1163.7999999999997V1573.7999999999997C798.7 1634.2999999999997 749.7 1683.2999999999997 689.2 1683.7999999999997C634.3000000000001 1689.5999999999997 585 1649.7999999999997 579.2 1594.8999999999996C578.5 1587.8999999999996 578.5 1580.7999999999997 579.2 1573.7999999999997V693.7999999999997C573.4000000000001 638.8999999999996 613.2 589.5999999999997 668.1 583.7999999999997C675.1 583.0999999999997 682.2 583.0999999999997 689.2 583.7999999999997C749.7 584.2999999999997 798.7 633.2999999999997 799.2 693.7999999999997V1093.7999999999997C803.2 1079.1999999999998 814.6 1067.7999999999997 829.2 1063.7999999999997L1589.2 603.7999999999997C1639.2 563.7999999999997 1689.2 593.7999999999997 1689.2 673.7999999999997V1603.7999999999997C1689.2 1673.7999999999997 1639.2 1703.7999999999997 1589.2 1663.7999999999997z" />
    <glyph glyph-name="font"
      unicode="&#xE011;"
      horiz-adv-x="2267.7" d="M1883.9 1883.7999999999995H383.9000000000001V1453.7999999999997H473.9000000000001L593.9000000000001 1683.7999999999997H983.9V693.6999999999998C983.9 553.6999999999998 783.9000000000001 483.6999999999998 783.9000000000001 483.6999999999998H683.9000000000001V383.6999999999998H1584V483.6999999999998H1484C1484 483.6999999999998 1284 533.6999999999998 1284 693.6999999999998V1683.7999999999997H1674L1784 1453.7999999999997H1884L1883.9 1883.7999999999995L1883.9 1883.7999999999995z" />
    <glyph glyph-name="fullscreen-out"
      unicode="&#xE012;"
      horiz-adv-x="2267.7" d="M1903.8 548.7999999999997L1663.8 788.7999999999997L1833.8 978.7999999999998H1333.8V478.7999999999997L1513.8 658.7999999999997L1753.8 418.7999999999998C1792.7 380.6999999999998 1854.9 380.6999999999998 1893.8 418.7999999999998C1931.7 441.5999999999997 1943.9 490.6999999999998 1921.1 528.5999999999997C1916.5 536.1999999999998 1910.6 542.9999999999998 1903.8 548.7999999999997zM603.8 1468.6999999999998L423.8 1288.6999999999998H923.8V1788.6999999999998L743.8 1608.6999999999998L503.8 1848.7C464.9 1886.7999999999995 402.7 1886.7999999999995 363.8 1848.7C325.7 1809.7999999999995 325.7 1747.6 363.8 1708.6999999999998L603.8 1468.6999999999998zM613.8 798.7999999999997L373.8 558.7999999999997C340.7 514.5999999999997 349.6 451.8999999999996 393.8 418.7999999999998C429.4 392.0999999999997 478.1999999999999 392.0999999999997 513.8 418.7999999999998L753.8 658.7999999999997L933.8 478.7999999999997V978.7999999999998H433.8L613.8 798.7999999999997zM1653.8 1458.6999999999998L1903.8 1698.6999999999998C1941.9 1737.6 1941.9 1799.7999999999997 1903.8 1838.7C1864.9 1876.7999999999995 1802.7 1876.7999999999995 1763.8 1838.7L1523.8 1588.6999999999998L1333.8 1778.6999999999998V1278.6999999999998H1833.8L1653.8 1458.6999999999998z" />
    <glyph glyph-name="fullscreen"
      unicode="&#xE013;"
      horiz-adv-x="2267.7" d="M653.9 1703.7999999999997L833.9 1883.7999999999995H333.9V1383.7999999999997L513.9 1563.7999999999997L753.9 1323.7999999999997C787 1279.6 849.6999999999999 1270.6999999999998 893.9 1303.7999999999997S947 1399.6 913.9 1443.7999999999997C908.2 1451.3999999999999 901.5 1458.1 893.9 1463.7999999999997L653.9 1703.7999999999997zM1753.9 703.7999999999997L1513.9 953.7999999999998C1480.8000000000002 997.9999999999998 1418.1000000000001 1006.8999999999996 1373.9 973.7999999999998C1329.7 940.6999999999998 1320.8000000000002 877.9999999999998 1353.9 833.7999999999997C1359.6000000000001 826.1999999999998 1366.3000000000002 819.4999999999998 1373.9 813.7999999999997L1623.9 573.7999999999997L1433.9 383.7999999999998H1933.9V883.7999999999997L1753.9 703.7999999999997zM1503.9 1313.7999999999997L1743.9 1553.7999999999997L1933.9 1383.7999999999997V1883.7999999999995H1433.9L1613.9 1703.7999999999997L1373.9 1463.7999999999997C1335.8000000000002 1424.8999999999999 1335.8000000000002 1362.6999999999998 1373.9 1323.7999999999997C1396.7 1285.8999999999999 1445.8000000000002 1273.6999999999998 1483.7 1296.5C1491.3 1301.1 1498.1 1306.8999999999999 1503.9 1313.7999999999997zM763.9 953.7999999999998L523.9 703.7999999999997L333.9 883.7999999999997V383.7999999999998H833.9L653.9 563.7999999999997L903.9 803.7999999999997C942 842.6999999999998 942 904.8999999999996 903.9 943.7999999999998C875.6 984.6999999999998 819.6 994.8999999999996 778.6999999999999 966.5999999999996C773.3 962.8999999999997 768.4 958.6 763.9 953.7999999999998z" />
    <glyph glyph-name="hamburger"
      unicode="&#xE014;"
      horiz-adv-x="18" d="M1.1 4C0.4 4 0 3.4156672 0 2.634989L0 1.365411C0 0.4881239 0.4 0.0002 1.1 0.0002L16.9004 0C17.5994 0 18.0004 0.7799024 18.0004 1.365411L18.0004 2.6340131C18.0004 3.5122761 17.5994 4.0002 16.9004 4.0002L1.1 4zM1.1 11C0.4 11 0 10.4002 0 9.6002L0 8.3002C0 7.4002 0.4 7 1.1 7L16.9004 7.0002C17.5994 7.0002 18.0004 7.7002 18.0004 8.3002L18.0004 9.7002C18.0004 10.5002 17.5994 11.0002 16.9004 11.0002L1.1 11zM1.13476562 18.0002C0.434765625 18.0002 0 17.5002 0 16.7002L0 15.4002C0 14.5002 0.434765625 14.0002 1.13476562 14.0002L16.9004 14.0002C17.5994 14.0002 18.0004 14.7002 18.0004 15.3002L18.0004 16.6002C18.0004 17.5002 17.5994 18.0002 16.9004 18.0002L1.13476562 18.0002z" />
    <glyph glyph-name="info"
      unicode="&#xE015;"
      horiz-adv-x="2267.7" d="M1123.9 1983.7999999999995C654.0000000000001 1970.2 281.0000000000001 1583.8999999999999 283.9000000000001 1113.7999999999997C287.7000000000001 653.0999999999997 663.2 282.1999999999998 1123.9 283.7999999999998C1412.8000000000002 289.1999999999998 1679.5 439.4999999999998 1833.9 683.7999999999997C1923.4 813.8999999999996 1975.3 966.0999999999996 1983.9 1123.7999999999997C1973.3 1594.2999999999997 1594.4 1973.2 1123.9 1983.7999999999995zM1133.9 483.7999999999997C782.6000000000001 497.8999999999996 502.6000000000001 782.2999999999997 493.9000000000001 1133.7999999999997C497.8000000000001 1483.3999999999996 774.5000000000001 1768.8999999999996 1123.9 1783.7999999999997C1475.2 1769.6999999999998 1755.2 1485.2999999999997 1763.9 1133.7999999999997C1759.9 784.1999999999998 1483.2 498.6999999999998 1133.9 483.7999999999997zM1133.9 883.7999999999997C1078.7 883.7999999999997 1033.9 838.9999999999998 1033.9 783.7999999999997C1037.7 730.1999999999998 1080.3000000000002 687.5999999999997 1133.9 683.7999999999997C1189.1000000000001 683.7999999999997 1233.9 728.5999999999997 1233.9 783.7999999999997C1230.1 837.3999999999999 1187.5 879.9999999999998 1133.9 883.7999999999997zM1133.9 1683.7999999999997C1082.1000000000001 1687.1999999999998 1037.3000000000002 1648 1033.9 1596.1999999999998C1033.6000000000001 1592.1 1033.6000000000001 1587.8999999999999 1033.9 1583.7999999999997V1083.7999999999997C1030.5 1031.9999999999998 1069.7 987.1999999999998 1121.5 983.7999999999998C1125.6 983.4999999999998 1129.8 983.4999999999998 1133.9 983.7999999999998C1185.7 980.3999999999996 1230.5 1019.5999999999996 1233.9 1071.3999999999996C1234.2 1075.4999999999995 1234.2 1079.6999999999996 1233.9 1083.7999999999997V1583.7999999999997C1237.3000000000002 1635.5999999999997 1198.1000000000001 1680.3999999999996 1146.3000000000002 1683.7999999999997C1142.2 1684.1 1138 1684.1 1133.9 1683.7999999999997z" />
    <glyph glyph-name="last"
      unicode="&#xE016;"
      horiz-adv-x="2267.7" d="M1578.6 1688.6C1518.1 1688.1 1469.1 1639.1 1468.6 1578.6V1168.6C1461.1 1183.6 1451 1197.1999999999998 1438.6 1208.6L678.5999999999999 1668.6C628.5999999999999 1708.6 578.5999999999999 1678.6 578.5999999999999 1608.6V668.5999999999999C578.5999999999999 598.5999999999999 628.5999999999999 568.5999999999999 678.5999999999999 598.5999999999999L1438.6 1058.6C1456.3 1063.8999999999999 1468.5 1080.1 1468.6 1098.6V688.5999999999999C1468.6 627.8 1517.8 578.5999999999999 1578.6 578.5C1639.3999999999999 578.5 1688.6 627.7 1688.6999999999998 688.5V688.5999999999999V1578.6C1694.4999999999998 1633.5 1654.6999999999998 1682.8 1599.7999999999997 1688.6C1592.7 1689.3999999999999 1585.6 1689.3999999999999 1578.6 1688.6z" />
    <glyph glyph-name="left-arrow"
      unicode="&#xE017;"
      horiz-adv-x="2267.7" d="M1424.7 1717.3999999999999L843 1132.1L1424.7 550.3999999999999L1424.7 1717.3999999999999" />
    <glyph glyph-name="mobile-left"
      unicode="&#xE018;"
      horiz-adv-x="942" d="M808.793017 0L27.4665227 781.375467C-9.15550756 818.037333 -9.15550756 877.990933 27.4665227 914.624533L808.595212 1696L941.802196 1562.7792L227.276998 848L942 133.2208000000001L808.793017 0z" />
    <glyph glyph-name="mobile-right"
      unicode="&#xE019;"
      horiz-adv-x="942" d="M133.2069829999999 1696L914.5334773 914.624533C951.15550756 877.962667 951.15550756 818.009067 914.5334773 781.375467L133.4047880000002 0L0.1978040000001 133.2207999999998L714.723002 848L-1e-13 1562.7791999999997L133.2069829999999 1696z" />
    <glyph glyph-name="mute"
      unicode="&#xE01A;"
      horiz-adv-x="2267.7" d="M792 1434.6999999999998H468.3C389.4 1434.6999999999998 325.5 1354.3999999999999 325.5 1275.8999999999999V991.7999999999998C325.5 913.2999999999998 389.4 832.9999999999998 468.3 832.9999999999998H800.4000000000001L1239.6000000000001 412.4999999999998V1855.2999999999995L792 1434.6999999999998zM1760.1 1128.3999999999999L1942.3 1310.4999999999998L1820.8 1431.9999999999998L1638.7 1249.7999999999997L1456.5 1431.9999999999998L1335.1 1310.4999999999998L1517.2 1128.3999999999999L1335 946.1999999999998L1456.5 824.6999999999998L1638.7 1006.8999999999997L1820.8 824.6999999999998L1942.3 946.1999999999998z" />
    <glyph glyph-name="next"
      unicode="&#xE01B;"
      horiz-adv-x="2267.7" d="M1893.8 1210.6999999999998L1133.9 1670.6C1083.9 1710.6 1033.9 1680.6 1033.9 1600.6V1300.6L433.9000000000001 1670.6C383.9000000000001 1710.6 333.9000000000001 1680.6 333.9000000000001 1610.6V670.6999999999998C333.9000000000001 600.6999999999998 383.9000000000001 570.6999999999998 433.9000000000001 600.6999999999998L1033.9 960.6999999999998V660.6999999999998C1033.9 590.6999999999998 1083.9 560.6999999999998 1133.9 590.6999999999998L1893.8 1050.6999999999998C1938.0000000000005 1083.7999999999997 1946.9 1146.4999999999998 1913.8 1190.6999999999998C1908.1 1198.2999999999997 1901.4 1204.9999999999998 1893.8 1210.6999999999998z" />
    <glyph glyph-name="note"
      unicode="&#xE01C;"
      horiz-adv-x="18" d="M4.2 12.991991991992C3.48 12.991991991992 3 13.3923923923924 3 13.992992992993S3.48 14.993993993994 4.2 14.993993993994H13.8C14.52 14.993993993994 15 14.5935935935936 15 13.992992992993S14.52 12.991991991992 13.8 12.991991991992H4.2zM9.857 7.986986986987H4.143C3.457 7.986986986987 3 8.3873873873874 3 8.987987987988C3 9.5885885885886 3.457 9.988988988989 4.143 9.988988988989H9.857C10.543 9.988988988989 11 9.5885885885886 11 8.987987987988C11 8.3873873873874 10.543 7.986986986987 9.857 7.986986986987zM0 17.996996996997V4.985985985986H5.625L9 -0.003003003003L12.375 4.985985985986H18V17.996996996997H0z" />
    <glyph glyph-name="previous"
      unicode="&#xE01D;"
      horiz-adv-x="2267.7" d="M1834.6 1663.6999999999998L1234.6 1293.6999999999998V1593.6999999999998C1234.6 1663.6999999999998 1184.6 1693.6999999999998 1134.6 1663.6999999999998L374.5999999999999 1203.6999999999998C335.8999999999999 1182.2999999999997 321.8999999999999 1133.6 343.2999999999999 1094.9999999999998C350.5999999999999 1081.7999999999997 361.3999999999999 1070.9999999999998 374.5999999999999 1063.6999999999998L1134.6 603.6999999999998C1184.6 563.6999999999998 1234.6 593.6999999999998 1234.6 673.6999999999998V973.6999999999998L1834.6 613.6999999999998C1884.6 573.6999999999998 1934.6 603.6999999999998 1934.6 683.6999999999998V1603.6999999999998C1934.6 1673.6999999999998 1884.6 1703.6999999999998 1834.6 1663.6999999999998z" />
    <glyph glyph-name="print"
      unicode="&#xE01E;"
      horiz-adv-x="2267.7" d="M1633.9 1383.7999999999997V1183.7999999999997H633.9000000000001V1383.7999999999997C523.4000000000001 1383.7999999999997 433.9000000000001 1294.2999999999997 433.9000000000001 1183.7999999999997V783.7999999999997C433.9000000000001 673.2999999999997 523.4000000000001 583.7999999999997 633.9000000000001 583.7999999999997V783.7999999999997H1633.9V583.7999999999997C1744.4 583.7999999999997 1833.9 673.2999999999997 1833.9 783.7999999999997V1183.7999999999997C1833.9 1294.2999999999997 1744.4 1383.7999999999997 1633.9 1383.7999999999997zM1533.9 1883.7999999999995H733.9000000000001V1283.7999999999997H1533.9V1883.7999999999995zM733.9 383.7999999999998H1533.9V683.7999999999997H733.9000000000001L733.9 383.7999999999998L733.9 383.7999999999998z" />
    <glyph glyph-name="right-arrow"
      unicode="&#xE01F;"
      horiz-adv-x="2267.7" d="M843 1717.3999999999999L843 550.3999999999999L1424.7 1132.1L843 1717.3999999999999" />
    <glyph glyph-name="rounded-close"
      unicode="&#xE020;"
      horiz-adv-x="2267.7" d="M1133.9 1983.7999999999995C664.5000000000001 1983.7999999999995 283.9000000000001 1603.2999999999997 283.9000000000001 1133.7999999999997S664.4000000000001 283.7999999999998 1133.9 283.7999999999998S1983.9 664.2999999999997 1983.9 1133.7999999999997C1984.5 1602.6999999999998 1604.8000000000002 1983.2 1135.9 1983.7999999999995C1135.2 1983.7999999999995 1134.6 1983.7999999999995 1133.9 1983.7999999999995zM1483.9 903.7999999999998C1500.5 890.8999999999996 1503.5 866.9999999999998 1490.6000000000001 850.4999999999998C1488.7 847.9999999999998 1486.4 845.7999999999997 1483.9 843.7999999999997L1423.9 783.7999999999997C1411 767.1999999999998 1387.1000000000001 764.1999999999998 1370.6000000000001 777.0999999999997C1368.1000000000001 778.9999999999998 1365.9 781.2999999999997 1363.9 783.7999999999997L1133.9 1013.7999999999998L903.9 783.7999999999997C891.0000000000001 767.1999999999998 867.1000000000001 764.1999999999998 850.6000000000001 777.0999999999997C848.1000000000001 778.9999999999998 845.9000000000001 781.2999999999997 843.9000000000001 783.7999999999997L783.9000000000001 843.7999999999997C767.3000000000001 856.6999999999998 764.3000000000001 880.5999999999997 777.2 897.0999999999997C779.1 899.5999999999997 781.4000000000001 901.7999999999998 783.9000000000001 903.7999999999998L1013.9 1133.7999999999997L783.9000000000001 1363.7999999999997C767.3000000000001 1375.7999999999997 763.6000000000001 1398.8999999999996 775.6000000000001 1415.4999999999998C777.9000000000001 1418.6999999999998 780.7000000000002 1421.4999999999998 783.9000000000001 1423.7999999999997L843.9000000000001 1483.7999999999997C855.9000000000001 1500.3999999999996 879.0000000000001 1504.0999999999997 895.6000000000001 1492.0999999999997C898.8000000000002 1489.7999999999997 901.6000000000003 1486.9999999999995 903.9 1483.7999999999997L1133.9 1253.7999999999997L1363.9 1483.7999999999997C1376.8000000000002 1500.3999999999996 1400.7 1503.3999999999996 1417.2 1490.4999999999998C1419.7 1488.6 1421.9 1486.2999999999997 1423.9 1483.7999999999997L1483.9 1423.7999999999997C1500.5 1410.8999999999996 1503.5 1386.9999999999998 1490.6000000000001 1370.4999999999998C1488.7 1367.9999999999998 1486.4 1365.7999999999997 1483.9 1363.7999999999997L1253.9 1133.7999999999997L1483.9 903.7999999999998z" />
    <glyph glyph-name="search"
      unicode="&#xE021;"
      horiz-adv-x="18" d="M8 5C10.7614237 5 13 7.2385763 13 10C13 12.76142375 10.7614237 15 8 15C5.23857625 15 3 12.76142375 3 10C3 7.2385763 5.23857625 5 8 5zM14.6177513 5.503569L18.0710678 2.0502525L15.9497475 -0.0710678L12.496431 3.3822487C11.2150179 2.5099013 9.66705586 2 8 2C3.581722 2 0 5.581722 0 10C0 14.418278 3.581722 18 8 18C12.418278 18 16 14.418278 16 10C16 8.33294414 15.4900987 6.7849821 14.6177513 5.503569z" />
    <glyph glyph-name="slideshow-pause"
      unicode="&#xE022;"
      horiz-adv-x="2267.7" d="M1978.3 1983.7999999999995H698.4C577.6 1976.7999999999995 484.4 1874.7999999999995 488.4 1753.7999999999997V1583.7999999999997H298.4C177.6 1576.7999999999997 84.4 1474.7999999999997 88.4 1353.7999999999997V503.7999999999997C88.3 386.0999999999997 180.8 289.1999999999998 298.4 283.7999999999998H1568.4C1687.6000000000001 286.8999999999997 1781.8000000000002 385.9999999999998 1778.8000000000002 505.2999999999997C1778.7000000000003 508.0999999999997 1778.6000000000001 510.9999999999998 1778.4 513.7999999999997V683.7999999999997H1968.4C2087.6 686.8999999999996 2181.8 785.9999999999998 2178.8 905.2999999999998C2178.7000000000003 908.0999999999996 2178.6000000000004 910.9999999999998 2178.4 913.7999999999998V1753.7999999999997C2190.1 1868.5999999999997 2106.5 1971.2 1991.6 1982.8999999999996C1987.2 1983.2999999999995 1982.8 1983.6 1978.3 1983.7999999999995zM888.4 723.7999999999997C886.9 702.2999999999997 869.9 685.2999999999997 848.4 683.7999999999997H728.4C706.9 685.2999999999997 689.9 702.2999999999997 688.4 723.7999999999997V1143.7999999999997C689.9 1165.2999999999997 706.9 1182.2999999999997 728.4 1183.7999999999997H848.4C869.9 1182.2999999999997 886.9 1165.2999999999997 888.4 1143.7999999999997V723.7999999999997zM1188.4 723.7999999999997C1186.9 702.2999999999997 1169.9 685.2999999999997 1148.4 683.7999999999997H1028.4C1006.9 685.2999999999997 989.9 702.2999999999997 988.4 723.7999999999997V1143.7999999999997C989.9 1165.2999999999997 1006.9 1182.2999999999997 1028.4 1183.7999999999997H1148.4C1169.8000000000002 1182.2999999999997 1186.9 1165.2999999999997 1188.4 1143.7999999999997V723.7999999999997zM1988.3 883.7999999999997H1788.3V1353.7999999999997C1792.3 1474.6999999999998 1699.1 1576.7999999999997 1578.3 1583.7999999999997H688.3V1783.7999999999997H1988.3V883.7999999999997z" />
    <glyph glyph-name="slideshow"
      unicode="&#xE023;"
      horiz-adv-x="2267.7" d="M1978.3 1983.7999999999995H698.4C577.6 1976.7999999999995 484.4 1874.7999999999995 488.4 1753.7999999999997V1583.7999999999997H298.4C177.6 1576.7999999999997 84.4 1474.7999999999997 88.4 1353.7999999999997V503.7999999999997C88.3 386.0999999999997 180.8 289.1999999999998 298.4 283.7999999999998H1568.4C1687.6000000000001 286.8999999999997 1781.8000000000002 385.9999999999998 1778.8000000000002 505.2999999999997C1778.7000000000003 508.0999999999997 1778.6000000000001 510.9999999999998 1778.4 513.7999999999997V683.7999999999997H1968.4C2087.6 686.8999999999996 2181.8 785.9999999999998 2178.8 905.2999999999998C2178.7000000000003 908.0999999999996 2178.6000000000004 910.9999999999998 2178.4 913.7999999999998V1753.7999999999997C2190.1 1868.5999999999997 2106.5 1971.2 1991.6 1982.8999999999996C1987.2 1983.2999999999995 1982.8 1983.6 1978.3 1983.7999999999995zM1588.4 483.7999999999997H288.4000000000001V1383.7999999999997H488.4000000000001V913.7999999999998C484.4000000000001 792.8999999999996 577.6000000000001 690.7999999999997 698.4000000000001 683.7999999999997H1588.4V483.7999999999997zM1988.3 883.7999999999997H688.4V1783.7999999999997H1988.3V883.7999999999997zM1248.4 1093.7999999999997L1638.4 1293.7999999999997C1678.4 1313.7999999999997 1658.4 1343.7999999999997 1638.4 1363.7999999999997L1248.4 1583.7999999999997C1228.4 1594.3999999999996 1203.6000000000001 1586.6999999999998 1193 1566.6999999999998C1189.3 1559.6999999999998 1187.7 1551.6999999999998 1188.4 1543.7999999999997V1113.7999999999997C1188.4 1083.7999999999997 1218.4 1073.7999999999997 1248.4 1093.7999999999997z" />
    <glyph glyph-name="social"
      unicode="&#xE024;"
      horiz-adv-x="2267.7" d="M1658.8 923.6999999999998C1574 921.3999999999997 1492.6 889.5999999999999 1428.8 833.6999999999998L908.8 1093.6999999999998V1173.6999999999998L1438.8 1433.6999999999998C1499.8 1379.6999999999998 1577.3999999999999 1347.8999999999999 1658.8 1343.6999999999998C1833.3 1341.4999999999998 1976.6 1481.1 1978.8 1655.6C1978.8 1658.2999999999997 1978.8 1660.9999999999998 1978.8 1663.6999999999998C1978.9 1840.4 1835.7 1983.7 1659 1983.7999999999995S1339 1840.7 1338.9 1663.9999999999998C1338.9 1663.8999999999996 1338.9 1663.7999999999997 1338.9 1663.6999999999998V1623.6999999999998L818.9000000000001 1363.6999999999998C758.9000000000001 1419.3999999999999 680.7 1451.3999999999999 598.9000000000001 1453.6999999999998C422.2000000000001 1453.6999999999998 278.9000000000001 1310.3999999999999 279.0000000000001 1133.6C279.0000000000001 956.8999999999997 422.2000000000001 813.6999999999998 598.9000000000001 813.6999999999998C681.3000000000001 813.2999999999997 760.4000000000001 845.6999999999998 818.9000000000001 903.6999999999998L1348.9 633.6999999999998V603.6999999999998C1348.9 426.9999999999998 1492.2 283.6999999999998 1668.9 283.6999999999998S1988.9 426.9999999999998 1988.9 603.6999999999998C1979.4 780.2999999999997 1835.6 919.7999999999998 1658.8 923.6999999999998z" />
    <glyph glyph-name="sound"
      unicode="&#xE025;"
      horiz-adv-x="2267.7" d="M1493.8 1433.7999999999997L1403.8 1343.7999999999997C1469.6 1294.5 1507 1215.9999999999998 1503.8 1133.7999999999997C1500.1 1053.1999999999998 1464 977.4999999999998 1403.8 923.7999999999998L1493.8 833.7999999999997C1584.5 906.6999999999998 1636.2 1017.4999999999998 1633.8 1133.7999999999997C1640.7 1250.9999999999998 1588.1 1363.7999999999997 1493.8 1433.7999999999997zM1663.8 1643.7999999999997L1563.8 1543.7999999999997C1790.2 1335.6 1805 983.1999999999998 1596.8 756.7999999999997C1586.3 745.3999999999996 1575.3 734.3999999999996 1563.8 723.7999999999997L1663.8 623.7999999999997C1805.6 755.2999999999997 1885.5 940.3999999999996 1883.8 1133.7999999999997C1889.6 1327.9999999999998 1809 1514.7999999999997 1663.8 1643.7999999999997zM523.8 1433.7999999999997C443.8 1422.7999999999997 384.1 1354.6 383.8 1273.7999999999997V993.7999999999998C380.8 911.7999999999998 442.1 841.6999999999998 523.8 833.7999999999997H853.8L1293.8 413.7999999999998V1853.7999999999995L843.8 1433.7999999999997H523.8z" />
    <glyph glyph-name="thumbnails"
      unicode="&#xE026;"
      horiz-adv-x="18" d="M6 18C6.6 18 7 17.6 7 17V12C7 11.4 6.6 11 6 11H1C0.4 11 0 11.4 0 12V17C0 17.6 0.4 18 1 18H6zM17 18C17.6 18 18 17.6 18 17V12C18 11.4 17.6 11 17 11H12C11.4 11 11 11.4 11 12V17C11 17.6 11.4 18 12 18H17zM6 7C6.6 7 7 6.6 7 6V1C7 0.4 6.6 0 6 0H1C0.4 0 0 0.4 0 1V6C0 6.6 0.4 7 1 7H6zM17 7C17.6 7 18 6.6 18 6V1C18 0.4 17.6 0 17 0H12C11.4 0 11 0.4 11 1V6C11 6.6 11.4 7 12 7H17z" />
    <glyph glyph-name="toc"
      unicode="&#xE027;"
      horiz-adv-x="18" d="M2.7002 18.0002L1.4002 18.0002C0.5002 18.0002 0.0002 17.5002 0.0002 16.7002L0.0002 15.4002C0.0002 14.5002 0.5002 14.0002 1.3002 14.0002L2.6002 14.0002C3.5002 14.0002 4.0002 14.7002 4.0002 15.3002L4.0002 16.6002C4.0002 17.5002 3.5002 18.0002 2.7002 18.0002M16.9004 18.0002L7.1004 18.0002C6.4004 18.0002 6.0004 17.5002 6.0004 16.7002L6.0004 15.4002C6.0004 14.5002 6.4004 14.0002 7.1004 14.0002L16.9004 14.0002C17.5994 14.0002 18.0004 14.7002 18.0004 15.3002L18.0004 16.6002C18.0004 17.5002 17.5994 18.0002 16.9004 18.0002M1.2998 11.0002C0.4998 11.0002 -0.0002 10.5002 -0.0002 9.7002L-0.0002 8.4002C-0.0002 7.5002 0.4998 7.0002 1.2998 7.0002L2.5998 7.0002C3.4998 7.0002 3.9998 7.7002 3.9998 8.3002L3.9998 9.7002C3.9998 10.5002 3.4998 11.0002 2.6998 11.0002L1.2998 11.0002zM16.9004 11.0002L7.1004 11.0002C6.4004 11.0002 6.0004 10.5002 6.0004 9.7002L6.0004 8.4002C6.0004 7.5002 6.4004 7.0002 7.1004 7.0002L16.9004 7.0002C17.5994 7.0002 18.0004 7.7002 18.0004 8.3002L18.0004 9.7002C18.0004 10.5002 17.5994 11.0002 16.9004 11.0002M2.7002 4.0002L1.4002 4.0002C0.5002 4.0002 0.0002 3.5002 0.0002 2.7002L0.0002 1.3992C0.0002 0.6002 0.5002 0.1002 1.3002 0.1002L2.6002 0.1002C3.5002 0.0002 4.0002 0.7002 4.0002 1.3002L4.0002 2.6002C4.0002 3.5002 3.5002 4.0002 2.7002 4.0002M16.9004 4.0002L7.1004 4.0002C6.4004 4.0002 6.0004 3.5002 6.0004 2.7002L6.0004 1.3992C6.0004 0.5002 6.4004 0.0002 7.1004 0.0002L16.9004 0.0002C17.5994 0.0002 18.0004 0.7002 18.0004 1.3002L18.0004 2.6002C18.0004 3.5002 17.5994 4.0002 16.9004 4.0002" />
    <glyph glyph-name="up-arrow"
      unicode="&#xE028;"
      horiz-adv-x="2267.7" d="M549.8000000000004 841.4000000000001L1717.7000000000005 841.4000000000003L1134.9000000000005 1426.4L549.8000000000006 841.4000000000001" />
    <glyph glyph-name="zoomin"
      unicode="&#xE029;"
      horiz-adv-x="2267.7" d="M1658.9 728.7999999999997C1674.3000000000002 749.7999999999997 1691 769.8999999999996 1708.9 788.7999999999997C1787.1000000000001 914.4999999999998 1825.4 1060.8999999999996 1818.9 1208.7999999999997C1811.4 1636.4999999999998 1466.5 1981.3999999999996 1038.8000000000002 1988.8999999999996C613.3000000000002 1974.7999999999995 276.3000000000002 1624.5999999999997 278.7000000000002 1198.7999999999997C278.7000000000002 778.9999999999998 619.0000000000002 438.6999999999998 1038.8000000000002 438.6999999999998C1204.1000000000001 439.1999999999998 1365.0000000000002 491.6999999999998 1498.8000000000002 588.6999999999998L1858.8 278.6999999999998L1988.8 428.6999999999998L1658.9 728.7999999999997zM1058.9 638.7999999999997C741.7 646.1999999999998 486.2 901.5999999999996 478.9000000000001 1218.7999999999997C481.5000000000001 1534.1999999999998 733.6000000000001 1790.7999999999997 1048.9 1798.7999999999997C1364.2 1790.6999999999998 1616.4 1534.1999999999998 1618.9 1218.7999999999997C1621.2 905.2999999999998 1372.3 647.4999999999998 1058.9 638.7999999999997zM1148.9 1618.8999999999999H948.9V1318.8999999999999H648.9000000000001V1118.8999999999999H948.9V818.8999999999999H1148.9V1118.8999999999999H1448.9V1318.8999999999999H1148.9C1148.9 1318.8999999999999 1148.9 1618.8999999999999 1148.9 1618.8999999999999z" />
    <glyph glyph-name="zoomout"
      unicode="&#xE02A;"
      horiz-adv-x="2267.7" d="M1658.9 728.7999999999997C1674.3000000000002 749.7999999999997 1691 769.8999999999996 1708.9 788.7999999999997C1787.1000000000001 914.4999999999998 1825.4 1060.8999999999996 1818.9 1208.7999999999997C1811.4 1636.4999999999998 1466.5 1981.3999999999996 1038.8000000000002 1988.8999999999996C613.3000000000002 1974.7999999999995 276.3000000000002 1624.5999999999997 278.7000000000002 1198.7999999999997C278.7000000000002 778.9999999999998 619.0000000000002 438.6999999999998 1038.8000000000002 438.6999999999998C1204.1000000000001 439.1999999999998 1365.0000000000002 491.6999999999998 1498.8000000000002 588.6999999999998L1858.8 278.6999999999998L1988.8 428.6999999999998L1658.9 728.7999999999997zM1058.9 638.7999999999997C741.7 646.1999999999998 486.2 901.5999999999996 478.9000000000001 1218.7999999999997C481.5000000000001 1534.1999999999998 733.6000000000001 1790.7999999999997 1048.9 1798.7999999999997C1364.2 1790.6999999999998 1616.4 1534.1999999999998 1618.9 1218.7999999999997C1621.2 905.2999999999998 1372.3 647.4999999999998 1058.9 638.7999999999997zM648.8 1118.7999999999997H1448.9V1318.7999999999997H648.8V1118.7999999999997z" />
  </font>
</defs>
</svg>
